{"title":"Submerged-AC3-5,1-DVDRip[Eng]2005","uid":4994898,"size":1492375939,"categoryP":"video","categoryS":"movies","magnet":"?xt=urn:btih:d8dde1a13de1299e03c22b2fd5d3accf138e06e1&amp;dn=Submerged-AC3-5%2C1-DVDRip%5BEng%5D2005&amp;tr=udp%3A%2F%2Ftracker.openbittorrent.com%3A80&amp;tr=udp%3A%2F%2Fopen.demonii.com%3A1337&amp;tr=udp%3A%2F%2Ftracker.coppersurfer.tk%3A6969&amp;tr=udp%3A%2F%2Fexodus.desync.com%3A6969","seeders":2,"leechers":3,"uploader":"FatFreddy31","files":5,"time":1247232994,"description":" &lt;a href=&quot;http://www.imdb.com/title/tt0416243/&quot; rel=&quot;nofollow&quot; target=&quot;_NEW&quot;&gt;http://www.imdb.com/title/tt0416243/&lt;/a&gt;\n\nUser Rating:3.7/10 - 2,052 votes\n\nAction\n\nDirector:Anthony Hickox\n\nCast:Steven Seagal/Vinnie Jones/Christine Adams/William Hope, and others.\n\nPlot:\nChris Kody, imprisoned member of the US military, is released from prison and reunited with his old team in order to pursue a renegade scientist. The catch, the scientist has developed mind control technology that can make even your friends into heartless killers...\n\nInfo:\n\nCovers included.\n\nGeneral\nComplete name                    : Submerged-AC3-5,1-DVDRip[Eng]2005.avi\nFormat                           : AVI\nFormat/Info                      : Audio Video Interleave\nFile size                        : 1.39 GiB\nDuration                         : 1h 32mn\nOverall bit rate                 : 2 156 Kbps\nWriting application              : VirtualDubMod 1.5.4.1 (build 2178/release)\nWriting library                  : VirtualDubMod build 2178/release\n\nVideo\nFormat                           : MPEG-4 Visual\nFormat profile                   : Streaming Video@L1\nFormat settings, BVOP            : Yes\nFormat settings, QPel            : No\nFormat settings, GMC             : No warppoints\nFormat settings, Matrix          : Default\nMuxing mode                      : Packed bitstream\nCodec ID                         : XVID\nCodec ID/Hint                    : XviD\nDuration                         : 1h 32mn\nBit rate                         : 1 700 Kbps\nWidth                            : 720 pixels\nHeight                           : 400 pixels\nDisplay aspect ratio             : 16/9\nFrame rate                       : 25.000 fps\nResolution                       : 24 bits\nColorimetry                      : 4:2:0\nScan type                        : Progressive\nBits/(Pixel*Frame)               : 0.236\nStream size                      : 1.09 GiB (79%)\nWriting library                  : XviD 50\n\nAudio\nFormat                           : AC-3\nFormat/Info                      : Audio Coding 3\nCodec ID                         : 2000\nDuration                         : 1h 32mn\nBit rate mode                    : Constant\nBit rate                         : 448 Kbps\nChannel(s)                       : 6 channels\nChannel positions                : Front: L C R, Surround: L R, LFE\nSampling rate                    : 48.0 KHz\nStream size                      : 295 MiB (21%)\nAlignment                        : Split accross interleaves\nInterleave, duration             : 80 ms (2.00 video frames)\nInterleave, preload duration     : 500 ms\nLanguage                         : English\n\nEnjoy...","torrent":{"xt":"urn:btih:d8dde1a13de1299e03c22b2fd5d3accf138e06e1","amp;dn":"Submerged-AC3-5%2C1-DVDRip%5BEng%5D2005","amp;tr":["udp%3A%2F%2Ftracker.openbittorrent.com%3A80","udp%3A%2F%2Fopen.demonii.com%3A1337","udp%3A%2F%2Ftracker.coppersurfer.tk%3A6969","udp%3A%2F%2Fexodus.desync.com%3A6969"],"infoHash":"d8dde1a13de1299e03c22b2fd5d3accf138e06e1","infoHashBuffer":{"type":"Buffer","data":[216,221,225,161,61,225,41,158,3,194,43,47,213,211,172,207,19,142,6,225]},"announce":[],"urlList":[]}}